<mxfile host="app.diagrams.net" modified="2022-12-02T15:38:08.732Z" agent="5.0 (Windows NT 10.0; Win64; x64) AppleWebKit/537.36 (KHTML, like Gecko) Chrome/107.0.0.0 Safari/537.36" version="20.6.0" etag="HpCg-eSTwp5OCQIRJ23G" type="github">
  <diagram id="QrEgrOTzuJLG-1OPJ3yg" name="Страница 1">
    <mxGraphModel dx="1038" dy="617" grid="1" gridSize="10" guides="1" tooltips="1" connect="1" arrows="1" fold="1" page="1" pageScale="1" pageWidth="827" pageHeight="1169" math="0" shadow="0">
      <root>
        <mxCell id="0" />
        <mxCell id="1" parent="0" />
        <object label="ADMIN" id="j4Thd3raL3Yoe5RdRxM6-1">
          <mxCell style="shape=umlActor;verticalLabelPosition=bottom;verticalAlign=top;html=1;" vertex="1" parent="1">
            <mxGeometry x="40" y="470" width="30" height="60" as="geometry" />
          </mxCell>
        </object>
        <mxCell id="j4Thd3raL3Yoe5RdRxM6-9" value="add book" style="ellipse;whiteSpace=wrap;html=1;" vertex="1" parent="1">
          <mxGeometry x="270" y="50" width="120" height="80" as="geometry" />
        </mxCell>
        <mxCell id="j4Thd3raL3Yoe5RdRxM6-12" value="rate the book" style="ellipse;whiteSpace=wrap;html=1;" vertex="1" parent="1">
          <mxGeometry x="390" y="250" width="120" height="80" as="geometry" />
        </mxCell>
        <mxCell id="j4Thd3raL3Yoe5RdRxM6-13" value="rate the user" style="ellipse;whiteSpace=wrap;html=1;" vertex="1" parent="1">
          <mxGeometry x="150" y="220" width="120" height="80" as="geometry" />
        </mxCell>
        <mxCell id="j4Thd3raL3Yoe5RdRxM6-14" value="rate the review" style="ellipse;whiteSpace=wrap;html=1;" vertex="1" parent="1">
          <mxGeometry x="320" y="150" width="120" height="80" as="geometry" />
        </mxCell>
        <mxCell id="j4Thd3raL3Yoe5RdRxM6-15" value="give comment" style="ellipse;whiteSpace=wrap;html=1;" vertex="1" parent="1">
          <mxGeometry x="270" y="260" width="120" height="80" as="geometry" />
        </mxCell>
        <mxCell id="j4Thd3raL3Yoe5RdRxM6-16" value="delete user" style="ellipse;whiteSpace=wrap;html=1;" vertex="1" parent="1">
          <mxGeometry x="320" y="505" width="120" height="80" as="geometry" />
        </mxCell>
        <mxCell id="j4Thd3raL3Yoe5RdRxM6-17" value="delete comment" style="ellipse;whiteSpace=wrap;html=1;" vertex="1" parent="1">
          <mxGeometry x="320" y="400" width="120" height="80" as="geometry" />
        </mxCell>
        <mxCell id="j4Thd3raL3Yoe5RdRxM6-18" value="write review" style="ellipse;whiteSpace=wrap;html=1;" vertex="1" parent="1">
          <mxGeometry x="480" width="120" height="80" as="geometry" />
        </mxCell>
        <mxCell id="j4Thd3raL3Yoe5RdRxM6-19" value="choose genre" style="ellipse;whiteSpace=wrap;html=1;" vertex="1" parent="1">
          <mxGeometry x="480" y="90" width="120" height="80" as="geometry" />
        </mxCell>
        <mxCell id="j4Thd3raL3Yoe5RdRxM6-21" value="Extend" style="endArrow=open;endSize=12;dashed=1;html=1;rounded=0;exitX=0;exitY=0.5;exitDx=0;exitDy=0;" edge="1" parent="1" source="j4Thd3raL3Yoe5RdRxM6-19" target="j4Thd3raL3Yoe5RdRxM6-9">
          <mxGeometry width="160" relative="1" as="geometry">
            <mxPoint x="420" y="180" as="sourcePoint" />
            <mxPoint x="490" y="240" as="targetPoint" />
          </mxGeometry>
        </mxCell>
        <mxCell id="j4Thd3raL3Yoe5RdRxM6-22" value="Extend" style="endArrow=open;endSize=12;dashed=1;html=1;rounded=0;exitX=0;exitY=0.5;exitDx=0;exitDy=0;entryX=1;entryY=0;entryDx=0;entryDy=0;" edge="1" parent="1" source="j4Thd3raL3Yoe5RdRxM6-18" target="j4Thd3raL3Yoe5RdRxM6-9">
          <mxGeometry width="160" relative="1" as="geometry">
            <mxPoint x="480" y="147.51" as="sourcePoint" />
            <mxPoint x="374.9924069854867" y="50.0029493436664" as="targetPoint" />
          </mxGeometry>
        </mxCell>
        <mxCell id="j4Thd3raL3Yoe5RdRxM6-32" style="rounded=0;orthogonalLoop=1;jettySize=auto;html=1;exitX=1;exitY=1;exitDx=0;exitDy=0;exitPerimeter=0;" edge="1" parent="1" source="j4Thd3raL3Yoe5RdRxM6-23" target="j4Thd3raL3Yoe5RdRxM6-13">
          <mxGeometry relative="1" as="geometry" />
        </mxCell>
        <mxCell id="j4Thd3raL3Yoe5RdRxM6-33" style="edgeStyle=none;rounded=0;orthogonalLoop=1;jettySize=auto;html=1;exitX=1;exitY=0.3333333333333333;exitDx=0;exitDy=0;exitPerimeter=0;" edge="1" parent="1" source="j4Thd3raL3Yoe5RdRxM6-23" target="j4Thd3raL3Yoe5RdRxM6-9">
          <mxGeometry relative="1" as="geometry" />
        </mxCell>
        <mxCell id="j4Thd3raL3Yoe5RdRxM6-34" style="edgeStyle=none;rounded=0;orthogonalLoop=1;jettySize=auto;html=1;exitX=1;exitY=0.3333333333333333;exitDx=0;exitDy=0;exitPerimeter=0;" edge="1" parent="1" source="j4Thd3raL3Yoe5RdRxM6-23" target="j4Thd3raL3Yoe5RdRxM6-14">
          <mxGeometry relative="1" as="geometry" />
        </mxCell>
        <mxCell id="j4Thd3raL3Yoe5RdRxM6-35" style="edgeStyle=none;rounded=0;orthogonalLoop=1;jettySize=auto;html=1;exitX=1;exitY=0.3333333333333333;exitDx=0;exitDy=0;exitPerimeter=0;" edge="1" parent="1" source="j4Thd3raL3Yoe5RdRxM6-23" target="j4Thd3raL3Yoe5RdRxM6-12">
          <mxGeometry relative="1" as="geometry" />
        </mxCell>
        <mxCell id="j4Thd3raL3Yoe5RdRxM6-36" style="edgeStyle=none;rounded=0;orthogonalLoop=1;jettySize=auto;html=1;exitX=1;exitY=0.3333333333333333;exitDx=0;exitDy=0;exitPerimeter=0;entryX=0.5;entryY=0;entryDx=0;entryDy=0;" edge="1" parent="1" source="j4Thd3raL3Yoe5RdRxM6-23" target="j4Thd3raL3Yoe5RdRxM6-15">
          <mxGeometry relative="1" as="geometry" />
        </mxCell>
        <mxCell id="j4Thd3raL3Yoe5RdRxM6-23" value="USER" style="shape=umlActor;verticalLabelPosition=bottom;verticalAlign=top;html=1;" vertex="1" parent="1">
          <mxGeometry x="60" y="60" width="30" height="60" as="geometry" />
        </mxCell>
        <mxCell id="j4Thd3raL3Yoe5RdRxM6-39" value="" style="endArrow=block;endSize=16;endFill=0;html=1;rounded=0;exitX=0.5;exitY=0;exitDx=0;exitDy=0;exitPerimeter=0;entryX=0;entryY=0.3333333333333333;entryDx=0;entryDy=0;entryPerimeter=0;" edge="1" parent="1" source="j4Thd3raL3Yoe5RdRxM6-1" target="j4Thd3raL3Yoe5RdRxM6-23">
          <mxGeometry x="-1" y="-196" width="160" relative="1" as="geometry">
            <mxPoint x="340" y="420" as="sourcePoint" />
            <mxPoint x="50" y="120" as="targetPoint" />
            <mxPoint x="-1" y="10" as="offset" />
          </mxGeometry>
        </mxCell>
        <mxCell id="j4Thd3raL3Yoe5RdRxM6-43" value="" style="endArrow=none;html=1;rounded=0;exitX=1;exitY=0.3333333333333333;exitDx=0;exitDy=0;exitPerimeter=0;entryX=0;entryY=0.5;entryDx=0;entryDy=0;" edge="1" parent="1" source="j4Thd3raL3Yoe5RdRxM6-1" target="j4Thd3raL3Yoe5RdRxM6-17">
          <mxGeometry relative="1" as="geometry">
            <mxPoint x="140" y="470" as="sourcePoint" />
            <mxPoint x="300" y="470" as="targetPoint" />
          </mxGeometry>
        </mxCell>
        <mxCell id="j4Thd3raL3Yoe5RdRxM6-44" value="parent" style="edgeLabel;resizable=0;html=1;align=left;verticalAlign=bottom;" connectable="0" vertex="1" parent="j4Thd3raL3Yoe5RdRxM6-43">
          <mxGeometry x="-1" relative="1" as="geometry" />
        </mxCell>
        <mxCell id="j4Thd3raL3Yoe5RdRxM6-45" value="child" style="edgeLabel;resizable=0;html=1;align=right;verticalAlign=bottom;" connectable="0" vertex="1" parent="j4Thd3raL3Yoe5RdRxM6-43">
          <mxGeometry x="1" relative="1" as="geometry" />
        </mxCell>
        <mxCell id="j4Thd3raL3Yoe5RdRxM6-46" value="" style="endArrow=none;html=1;rounded=0;exitX=1;exitY=1;exitDx=0;exitDy=0;exitPerimeter=0;" edge="1" parent="1" source="j4Thd3raL3Yoe5RdRxM6-1" target="j4Thd3raL3Yoe5RdRxM6-16">
          <mxGeometry relative="1" as="geometry">
            <mxPoint x="90" y="570" as="sourcePoint" />
            <mxPoint x="250" y="570" as="targetPoint" />
          </mxGeometry>
        </mxCell>
        <mxCell id="j4Thd3raL3Yoe5RdRxM6-47" value="parent" style="edgeLabel;resizable=0;html=1;align=left;verticalAlign=bottom;" connectable="0" vertex="1" parent="j4Thd3raL3Yoe5RdRxM6-46">
          <mxGeometry x="-1" relative="1" as="geometry" />
        </mxCell>
        <mxCell id="j4Thd3raL3Yoe5RdRxM6-48" value="child" style="edgeLabel;resizable=0;html=1;align=right;verticalAlign=bottom;" connectable="0" vertex="1" parent="j4Thd3raL3Yoe5RdRxM6-46">
          <mxGeometry x="1" relative="1" as="geometry" />
        </mxCell>
      </root>
    </mxGraphModel>
  </diagram>
</mxfile>
